<?xml version="1.0" standalone="no"?>
<!DOCTYPE svg PUBLIC "-//W3C//DTD SVG 20010904//EN"
 "http://www.w3.org/TR/2001/REC-SVG-20010904/DTD/svg10.dtd">
<svg version="1.0" xmlns="http://www.w3.org/2000/svg"
 width="179.997139pt" height="202.836059pt" viewBox="0 0 179.997139 202.836059"
 preserveAspectRatio="xMidYMid meet">
<metadata>
Created by potrace 1.12, written by Peter Selinger 2001-2015
</metadata>
<g transform="translate(-20.027953,214.272790) scale(0.100000,-0.100000)"
fill="#000000" stroke="none">
<path d="M908 1875 l-3 -268 -48 -12 c-106 -27 -183 -117 -174 -203 10 -97 88
-158 216 -169 l71 -6 0 -248 0 -249 176 0 c107 0 174 4 172 10 -1 5 -68 138
-148 296 -104 206 -141 288 -132 291 8 3 30 19 49 36 107 94 101 267 -12 373
l-45 42 49 133 c27 74 54 146 60 161 10 26 8 28 -44 47 -30 11 -83 23 -119 27
l-66 7 -2 -268z"/>
<path d="M730 2119 c-65 -12 -130 -39 -130 -52 0 -7 27 -83 60 -171 33 -87 60
-160 60 -161 0 -2 -22 -11 -49 -20 -69 -23 -125 -74 -163 -152 -28 -58 -33
-77 -33 -143 1 -83 27 -156 79 -217 30 -36 137 -93 173 -93 12 0 23 -4 23 -8
0 -4 -25 -87 -55 -184 -30 -97 -55 -181 -55 -187 0 -7 43 -11 136 -11 l136 0
-7 208 c-5 119 -12 210 -18 213 -5 4 -28 10 -51 13 -119 19 -206 126 -208 254
-1 93 50 165 155 216 l54 27 6 112 c4 62 7 169 7 240 l0 127 -37 -1 c-21 -1
-58 -5 -83 -10z"/>
<path d="M1205 2038 c-3 -7 -26 -71 -53 -141 l-48 -128 52 -52 c56 -59 84
-123 84 -194 0 -61 -21 -105 -79 -166 l-49 -52 150 -293 149 -292 110 0 c86 0
108 3 103 13 -5 6 -85 116 -180 243 l-172 231 69 69 c119 117 176 271 151 407
-24 128 -117 269 -220 336 -54 35 -61 36 -67 19z"/>
<path d="M315 511 c-22 -10 -50 -29 -62 -42 -78 -85 -68 -246 19 -312 47 -36
123 -52 180 -37 46 13 108 54 108 72 0 6 -10 2 -22 -10 -32 -29 -71 -42 -130
-42 -45 0 -54 4 -88 38 -111 111 -53 332 86 332 60 0 94 -20 123 -70 12 -23
25 -40 27 -37 2 2 1 31 -2 65 -6 49 -10 60 -20 51 -9 -7 -24 -7 -51 0 -57 16
-123 13 -168 -8z"/>
<path d="M1159 507 c-74 -39 -117 -127 -105 -216 22 -157 190 -227 328 -136
53 35 42 44 -15 11 -31 -18 -58 -26 -93 -26 -98 0 -154 67 -154 182 1 125 58
193 157 185 59 -4 84 -22 114 -77 l18 -35 1 68 c0 66 -5 78 -27 56 -9 -9 -20
-9 -44 0 -54 19 -131 14 -180 -12z"/>
<path d="M640 500 c18 -18 20 -33 20 -155 0 -192 22 -225 150 -225 125 0 150
39 150 229 0 118 2 133 20 151 l20 20 -52 0 c-50 0 -52 -1 -30 -16 21 -14 22
-22 22 -143 0 -70 -5 -142 -11 -160 -14 -38 -54 -61 -109 -61 -92 0 -110 37
-110 219 0 104 3 133 16 145 14 15 10 16 -45 16 l-61 0 20 -20z"/>
<path d="M1494 504 c13 -13 16 -43 16 -177 0 -89 -4 -167 -8 -174 -4 -7 -19
-16 -32 -22 -18 -7 22 -10 142 -10 l167 -1 14 48 c14 49 12 69 -4 39 -17 -30
-49 -55 -81 -61 -50 -10 -123 -7 -136 6 -7 7 -12 43 -12 90 l0 78 75 0 c71 0
75 -1 89 -27 15 -27 15 -26 15 42 0 68 0 69 -15 43 -17 -32 -42 -40 -110 -36
l-49 3 0 80 0 80 70 3 c79 2 118 -12 123 -46 2 -12 8 -22 14 -22 6 0 8 12 4
31 -3 17 -6 35 -6 40 0 5 -66 9 -146 9 -132 0 -144 -1 -130 -16z"/>
<path d="M1873 509 c15 -9 17 -29 17 -185 l0 -175 -32 -14 c-31 -14 -29 -14
62 -14 91 0 93 0 63 14 l-33 14 0 175 c0 156 2 176 18 185 13 8 1 10 -48 10
-49 0 -61 -2 -47 -10z"/>
</g>
</svg>
